<svg width="112" height="24" viewBox="0 0 112 24" fill="none" xmlns="http://www.w3.org/2000/svg">
<path d="M29.2019 19.46C29.2019 20.06 28.6309 20.8436 27.7763 20.8436C27.2848 20.8436 26.7915 20.5818 26.506 20.1909L22.435 14.1909H18.9097V19.3036C18.9097 20.1382 18.2357 20.8436 17.4063 20.8436C16.5769 20.8436 15.8776 20.14 15.8776 19.3036V4.90363C15.8776 3.86 16.4486 3.28545 17.484 3.28545H23.4721C26.8945 3.28545 29.1242 5.52909 29.1242 8.73818C29.1242 11.5818 27.4384 13.2254 25.5465 13.7473L28.9164 18.4945C29.0718 18.7291 29.2019 18.9636 29.2019 19.46ZM18.9097 11.5036H23.0584C24.7695 11.5036 26.0145 10.4091 26.0145 8.73818C26.0145 7.06727 24.7695 5.97273 23.0584 5.97273H18.9097V11.5036Z" fill="white"/>
<path d="M31.262 19.3109V4.81091C31.262 3.98363 31.9359 3.28545 32.7906 3.28545C33.6453 3.28545 34.294 3.98363 34.294 4.81091V19.3109C34.294 20.1382 33.62 20.8364 32.7906 20.8364C31.9612 20.8364 31.262 20.1382 31.262 19.3109Z" fill="white"/>
<path d="M45.1936 3C50.3795 3 54.0349 6.80909 54.0349 12C54.0349 17.1909 50.3795 21 45.1936 21C40.0077 21 36.3541 17.1909 36.3541 12C36.3541 6.80909 40.0095 3 45.1936 3ZM45.1936 5.71273C41.6935 5.71273 39.4638 8.4 39.4638 12C39.4638 15.6 41.6935 18.2873 45.1936 18.2873C48.6936 18.2873 50.9233 15.5745 50.9233 12C50.9233 8.42545 48.6683 5.71273 45.1936 5.71273Z" fill="white"/>
<path d="M71.0274 19.3036V7.51271L65.8686 20.2945C65.7385 20.6345 65.4277 20.8436 65.0645 20.8436C64.7013 20.8436 64.3905 20.6345 64.2604 20.2945L59.1269 7.51271V19.3036C59.1269 20.1382 58.453 20.8436 57.6236 20.8436C56.7942 20.8436 56.0949 20.14 56.0949 19.3036V5.65999C56.0949 4.27817 57.2098 3.12907 58.6102 3.12907C59.6726 3.12907 60.5797 3.7818 60.9429 4.71998L65.0645 14.9982L69.2132 4.71998C69.5764 3.77998 70.4835 3.12907 71.546 3.12907C72.9463 3.12907 74.0612 4.27635 74.0612 5.65999V19.3036C74.0612 20.1382 73.3872 20.8436 72.5307 20.8436C71.6743 20.8436 71.0274 20.14 71.0274 19.3036Z" fill="white"/>
<path d="M76.1213 19.3036V4.66909C76.1213 3.83454 76.7953 3.13091 77.6499 3.13091C78.5046 3.13091 79.1533 3.83454 79.1533 4.66909V19.3036C79.1533 20.1382 78.4793 20.8436 77.6499 20.8436C76.8206 20.8436 76.1213 20.14 76.1213 19.3036Z" fill="white"/>
<path d="M81.2134 12C81.2134 6.65273 85.1796 3 90.1577 3C92.9313 3 94.8503 4.06909 96.2235 5.58182C96.4566 5.81637 96.5867 6.18182 96.5867 6.54727C96.5867 7.33091 95.938 7.98182 95.1611 7.98182C94.7202 7.98182 94.3317 7.79818 94.0715 7.48727C93.1373 6.41818 91.764 5.71273 90.1577 5.71273C86.8655 5.71273 84.3249 8.34727 84.3249 12C84.3249 15.6527 86.8655 18.2873 90.1577 18.2873C91.764 18.2873 93.1391 17.6091 94.0986 16.5127C94.357 16.2255 94.7202 16.0164 95.1611 16.0164C95.938 16.0164 96.5867 16.6691 96.5867 17.4509C96.5867 17.8164 96.4566 18.1818 96.2235 18.4164C94.8503 19.9291 92.9566 20.9982 90.1577 20.9982C85.1796 20.9982 81.2134 17.3455 81.2134 11.9982V12Z" fill="white"/>
<path d="M98.6504 17.9473C98.6504 17.1382 99.2991 16.4873 100.076 16.4873C100.414 16.4873 100.725 16.5909 100.958 16.7745C102.15 17.6618 103.628 18.2873 105.443 18.2873C107.931 18.2873 108.917 17.0618 108.917 15.9127C108.917 14.3473 107.076 13.8782 104.976 13.3309C102.15 12.6273 98.8311 11.7909 98.8311 8.11271C98.8311 5.24362 101.346 3.02544 105.39 3.02544C107.412 3.02544 109.046 3.54726 110.73 4.61635C111.118 4.8509 111.378 5.29453 111.378 5.7909C111.378 6.57453 110.73 7.22544 109.953 7.22544C109.642 7.22544 109.356 7.1218 109.149 6.96362C107.904 6.12907 106.453 5.73817 105.13 5.73817C103.081 5.73817 101.941 6.59817 101.941 7.90362C101.941 9.20908 103.704 9.70362 105.752 10.2254C108.603 10.9563 112 11.8418 112 15.6254C112 18.52 109.978 20.9982 105.311 20.9982C102.745 20.9982 100.748 20.2673 99.2178 19.0945C98.8817 18.8327 98.6468 18.4163 98.6468 17.9473H98.6504Z" fill="white"/>
<path d="M5.39188 14.7891V5.97273H1.34797C0.623395 5.97273 0 5.37272 0 4.64182C0 3.91091 0.621588 3.28545 1.34797 3.28545H12.4696C13.196 3.28545 13.8176 3.88545 13.8176 4.64182C13.8176 5.39818 13.196 5.97273 12.4696 5.97273H8.42571V14.7891C8.42571 15.6236 7.75173 16.3291 6.92235 16.3291C6.09297 16.3291 5.39369 15.6255 5.39369 14.7891H5.39188Z" fill="white"/>
<path d="M6.96395 20.8345C7.82916 20.8345 8.53056 20.1288 8.53056 19.2582C8.53056 18.3876 7.82916 17.6818 6.96395 17.6818C6.09874 17.6818 5.39734 18.3876 5.39734 19.2582C5.39734 20.1288 6.09874 20.8345 6.96395 20.8345Z" fill="white"/>
</svg>
